<?xml version="1.0" standalone="no"?><!DOCTYPE svg PUBLIC "-//W3C//DTD SVG 1.1//EN" "http://www.w3.org/Graphics/SVG/1.1/DTD/svg11.dtd"><svg t="1693832126387" class="icon" viewBox="0 0 1024 1024" version="1.1" xmlns="http://www.w3.org/2000/svg" p-id="14695" xmlns:xlink="http://www.w3.org/1999/xlink" width="200" height="200"><path d="M512 170.688h42.688v42.688H512z" fill="#E60012" p-id="14696"></path><path d="M512 213.312h42.688V256H512z" fill="#E60012" p-id="14697"></path><path d="M554.688 170.688h42.688v42.688h-42.688z" fill="#FFFFFF" p-id="14698"></path><path d="M554.688 213.312h42.688V256h-42.688zM512 85.312h42.688V128H512z" fill="#FFFFFF" p-id="14699"></path><path d="M554.688 85.312h42.688V128h-42.688z" fill="#E60012" p-id="14700"></path><path d="M597.312 42.688H640v42.688h-42.688z" fill="#FFFFFF" p-id="14701"></path><path d="M597.312 85.312H640V128h-42.688zM640 42.688h42.688v42.688H640z" fill="#E60012" p-id="14702"></path><path d="M640 85.312h42.688V128H640z" fill="#FFFFFF" p-id="14703"></path><path d="M682.688 42.688h42.688v42.688h-42.688z" fill="#E60012" p-id="14704"></path><path d="M682.688 85.312h42.688V128h-42.688z" fill="#FFFFFF" p-id="14705"></path><path d="M725.312 42.688H768v42.688h-42.688zM512 128h42.688v42.688H512z" fill="#E60012" p-id="14706"></path><path d="M554.688 128h42.688v42.688h-42.688z" fill="#FFFFFF" p-id="14707"></path><path d="M597.312 128H640v42.688h-42.688zM170.688 298.688h42.688v42.688h-42.688z" fill="#FFFFFF" p-id="14708"></path><path d="M213.312 298.688H256v42.688h-42.688zM256 298.688h42.688v42.688H256zM298.688 298.688h42.688v42.688h-42.688z" fill="#FFFFFF" p-id="14709"></path><path d="M341.312 298.688H384v42.688h-42.688zM384 298.688h42.688v42.688H384zM426.688 298.688h42.688v42.688h-42.688z" fill="#FFFFFF" p-id="14710"></path><path d="M469.312 298.688H512v42.688h-42.688zM512 298.688h42.688v42.688H512zM554.688 298.688h42.688v42.688h-42.688z" fill="#FFFFFF" p-id="14711"></path><path d="M597.312 298.688H640v42.688h-42.688zM682.688 298.688h42.688v42.688h-42.688z" fill="#FFFFFF" p-id="14712"></path><path d="M725.312 298.688H768v42.688h-42.688zM768 298.688h42.688v42.688H768zM810.688 298.688h42.688v42.688h-42.688zM170.688 341.312h42.688V384h-42.688z" fill="#FFFFFF" p-id="14713"></path><path d="M213.312 341.312H256V384h-42.688zM256 341.312h42.688V384H256zM298.688 341.312h42.688V384h-42.688z" fill="#FFFFFF" p-id="14714"></path><path d="M341.312 341.312H384V384h-42.688zM384 341.312h42.688V384H384zM426.688 341.312h42.688V384h-42.688z" fill="#FFFFFF" p-id="14715"></path><path d="M469.312 341.312H512V384h-42.688zM512 341.312h42.688V384H512zM554.688 341.312h42.688V384h-42.688z" fill="#FFFFFF" p-id="14716"></path><path d="M597.312 341.312H640V384h-42.688zM640 298.688h42.688v42.688H640z" fill="#FFFFFF" p-id="14717"></path><path d="M640 341.312h42.688V384H640zM682.688 341.312h42.688V384h-42.688z" fill="#FFFFFF" p-id="14718"></path><path d="M725.312 341.312H768V384h-42.688zM768 341.312h42.688V384H768zM810.688 341.312h42.688V384h-42.688z" fill="#FFFFFF" p-id="14719"></path><path d="M682.688 426.688h42.688v42.688h-42.688z" fill="#4264AE" p-id="14720"></path><path d="M682.688 469.312h42.688V512h-42.688z" fill="#4264AE" p-id="14721"></path><path d="M725.312 426.688H768v42.688h-42.688z" fill="#4264AE" p-id="14722"></path><path d="M725.312 469.312H768V512h-42.688zM682.688 512h42.688v42.688h-42.688z" fill="#4264AE" p-id="14723"></path><path d="M725.312 512H768v42.688h-42.688zM768 426.688h42.688v42.688H768z" fill="#4264AE" p-id="14724"></path><path d="M768 469.312h42.688V512H768zM213.312 426.688H256v42.688h-42.688zM256 426.688h42.688v42.688H256zM298.688 426.688h42.688v42.688h-42.688z" fill="#4264AE" p-id="14725"></path><path d="M341.312 426.688H384v42.688h-42.688zM384 426.688h42.688v42.688H384zM426.688 426.688h42.688v42.688h-42.688z" fill="#4264AE" p-id="14726"></path><path d="M469.312 426.688H512v42.688h-42.688zM213.312 469.312H256V512h-42.688zM298.688 469.312h42.688V512h-42.688zM384 469.312h42.688V512H384z" fill="#4264AE" p-id="14727"></path><path d="M426.688 469.312h42.688V512h-42.688zM512 426.688h42.688v42.688H512z" fill="#4264AE" p-id="14728"></path><path d="M512 469.312h42.688V512H512zM298.688 512h42.688v42.688h-42.688zM384 512h42.688v42.688H384zM426.688 512h42.688v42.688h-42.688zM554.688 426.688h42.688v42.688h-42.688z" fill="#4264AE" p-id="14729"></path><path d="M597.312 426.688H640v42.688h-42.688z" fill="#4264AE" p-id="14730"></path><path d="M597.312 469.312H640V512h-42.688zM554.688 512h42.688v42.688h-42.688z" fill="#4264AE" p-id="14731"></path><path d="M597.312 512H640v42.688h-42.688zM640 426.688h42.688v42.688H640z" fill="#4264AE" p-id="14732"></path><path d="M640 469.312h42.688V512H640zM640 512h42.688v42.688H640zM256 469.312h42.688V512H256zM341.312 469.312H384V512h-42.688zM469.312 469.312H512V512h-42.688zM256 512h42.688v42.688H256zM341.312 512H384v42.688h-42.688zM469.312 512H512v42.688h-42.688zM512 512h42.688v42.688H512zM554.688 469.312h42.688V512h-42.688z" fill="#4264AE" p-id="14733"></path><path d="M682.688 597.312h42.688V640h-42.688z" fill="#E60012" p-id="14734"></path><path d="M725.312 597.312H768V640h-42.688zM682.688 640h42.688v42.688h-42.688z" fill="#E60012" p-id="14735"></path><path d="M725.312 640H768v42.688h-42.688zM682.688 682.688h42.688v42.688h-42.688z" fill="#E60012" p-id="14736"></path><path d="M725.312 682.688H768v42.688h-42.688z" fill="#E60012" p-id="14737"></path><path d="M682.688 725.312h42.688V768h-42.688z" fill="#E60012" p-id="14738"></path><path d="M725.312 725.312H768V768h-42.688zM298.688 597.312h42.688V640h-42.688zM426.688 597.312h42.688V640h-42.688zM512 597.312h42.688V640H512zM256 640h42.688v42.688H256zM298.688 640h42.688v42.688h-42.688z" fill="#E60012" p-id="14739"></path><path d="M341.312 640H384v42.688h-42.688zM384 640h42.688v42.688H384zM426.688 640h42.688v42.688h-42.688z" fill="#E60012" p-id="14740"></path><path d="M469.312 640H512v42.688h-42.688zM512 640h42.688v42.688H512zM597.312 597.312H640V640h-42.688zM554.688 640h42.688v42.688h-42.688z" fill="#E60012" p-id="14741"></path><path d="M597.312 640H640v42.688h-42.688zM256 682.688h42.688v42.688H256zM298.688 682.688h42.688v42.688h-42.688z" fill="#E60012" p-id="14742"></path><path d="M341.312 682.688H384v42.688h-42.688zM384 682.688h42.688v42.688H384zM426.688 682.688h42.688v42.688h-42.688z" fill="#E60012" p-id="14743"></path><path d="M469.312 682.688H512v42.688h-42.688zM512 682.688h42.688v42.688H512zM554.688 682.688h42.688v42.688h-42.688z" fill="#E60012" p-id="14744"></path><path d="M597.312 682.688H640v42.688h-42.688zM341.312 725.312H384V768h-42.688zM384 725.312h42.688V768H384zM426.688 725.312h42.688V768h-42.688z" fill="#E60012" p-id="14745"></path><path d="M469.312 725.312H512V768h-42.688zM512 725.312h42.688V768H512zM554.688 725.312h42.688V768h-42.688z" fill="#E60012" p-id="14746"></path><path d="M597.312 725.312H640V768h-42.688zM640 597.312h42.688V640H640zM640 640h42.688v42.688H640zM640 682.688h42.688v42.688H640z" fill="#E60012" p-id="14747"></path><path d="M640 725.312h42.688V768H640zM256 597.312h42.688V640H256zM341.312 597.312H384V640h-42.688zM384 597.312h42.688V640H384zM469.312 597.312H512V640h-42.688zM554.688 597.312h42.688V640h-42.688zM256 725.312h42.688V768H256zM298.688 725.312h42.688V768h-42.688z" fill="#E60012" p-id="14748"></path><path d="M426.688 810.688h42.688v42.688h-42.688z" fill="#4264AE" p-id="14749"></path><path d="M469.312 810.688H512v42.688h-42.688zM298.688 810.688h42.688v42.688h-42.688z" fill="#4264AE" p-id="14750"></path><path d="M341.312 810.688H384v42.688h-42.688zM554.688 810.688h42.688v42.688h-42.688z" fill="#4264AE" p-id="14751"></path><path d="M597.312 810.688H640v42.688h-42.688zM298.688 853.312h42.688V896h-42.688z" fill="#4264AE" p-id="14752"></path><path d="M341.312 853.312H384V896h-42.688zM384 853.312h42.688V896H384zM512 853.312h42.688V896H512zM554.688 853.312h42.688V896h-42.688z" fill="#4264AE" p-id="14753"></path><path d="M597.312 853.312H640V896h-42.688zM298.688 896h42.688v42.688h-42.688z" fill="#4264AE" p-id="14754"></path><path d="M341.312 896H384v42.688h-42.688zM384 896h42.688v42.688H384zM426.688 896h42.688v42.688h-42.688z" fill="#4264AE" p-id="14755"></path><path d="M469.312 896H512v42.688h-42.688zM298.688 938.688h42.688v42.688h-42.688z" fill="#4264AE" p-id="14756"></path><path d="M341.312 938.688H384v42.688h-42.688zM384 938.688h42.688v42.688H384zM426.688 938.688h42.688v42.688h-42.688z" fill="#4264AE" p-id="14757"></path><path d="M469.312 938.688H512v42.688h-42.688zM512 896h42.688v42.688H512zM512 938.688h42.688v42.688H512zM554.688 896h42.688v42.688h-42.688zM554.688 938.688h42.688v42.688h-42.688z" fill="#4264AE" p-id="14758"></path><path d="M597.312 896H640v42.688h-42.688zM597.312 938.688H640v42.688h-42.688zM682.688 853.312h42.688V896h-42.688zM682.688 896h42.688v42.688h-42.688zM682.688 938.688h42.688v42.688h-42.688z" fill="#4264AE" p-id="14759"></path><path d="M682.688 810.688h42.688v42.688h-42.688zM512 810.688h42.688v42.688H512zM426.688 853.312h42.688V896h-42.688z" fill="#4264AE" p-id="14760"></path><path d="M469.312 853.312H512V896h-42.688zM640 810.688h42.688v42.688H640z" fill="#4264AE" p-id="14761"></path><path d="M640 853.312h42.688V896H640zM640 896h42.688v42.688H640zM640 938.688h42.688v42.688H640zM384 810.688h42.688v42.688H384z" fill="#4264AE" p-id="14762"></path><path d="M469.312 170.688H512v42.688h-42.688z" p-id="14763"></path><path d="M469.312 213.312H512V256h-42.688zM170.688 256h42.688v42.688h-42.688z" p-id="14764"></path><path d="M213.312 256H256v42.688h-42.688zM256 256h42.688v42.688H256zM298.688 256h42.688v42.688h-42.688z" p-id="14765"></path><path d="M341.312 256H384v42.688h-42.688zM384 256h42.688v42.688H384zM426.688 256h42.688v42.688h-42.688z" p-id="14766"></path><path d="M469.312 256H512v42.688h-42.688zM128 298.688h42.688v42.688H128zM512 256h42.688v42.688H512zM554.688 256h42.688v42.688h-42.688zM597.312 170.688H640v42.624h-42.688zM597.312 213.312H640V256h-42.688z" p-id="14767"></path><path d="M597.312 256H640v42.688h-42.688zM640 256h42.688v42.688H640zM469.312 85.312H512V128h-42.688zM512 42.688h42.688v42.688H512zM554.688 42.688h42.688v42.688h-42.688zM725.312 85.312H768V128h-42.688zM768 42.688h42.688v42.688H768z" p-id="14768"></path><path d="M768 85.312h42.688V128H768zM725.312 256H768v42.688h-42.688zM768 256h42.688v42.688H768zM810.688 256h42.688v42.688h-42.688zM853.312 298.688H896v42.688h-42.688zM682.688 384h42.688v42.688h-42.688z" p-id="14769"></path><path d="M725.312 384H768v42.688h-42.688zM768 384h42.688v42.688H768z" p-id="14770"></path><path d="M768 512h42.688v42.688H768z" fill="#4264AE" p-id="14771"></path><path d="M810.688 512h42.688v42.688h-42.688zM682.688 554.688h42.688v42.688h-42.688z" p-id="14772"></path><path d="M725.312 554.688H768v42.688h-42.688zM768 554.688h42.688v42.688H768z" p-id="14773"></path><path d="M768 597.312h42.688V640H768zM768 640h42.688v42.688H768zM768 682.688h42.688v42.688H768zM725.312 768H768v42.688h-42.688z" p-id="14774"></path><path d="M768 725.312h42.688V768H768zM810.688 384h42.688v42.688h-42.688zM810.688 426.688h42.688v42.688h-42.688z" p-id="14775"></path><path d="M810.688 469.312h42.688V512h-42.688zM170.688 384h42.688v42.688h-42.688z" p-id="14776"></path><path d="M213.312 384H256v42.688h-42.688zM256 384h42.688v42.688H256zM298.688 384h42.688v42.688h-42.688z" p-id="14777"></path><path d="M341.312 384H384v42.688h-42.688zM384 384h42.688v42.688H384zM426.688 384h42.688v42.688h-42.688z" p-id="14778"></path><path d="M469.312 384H512v42.688h-42.688zM170.688 426.688h42.688v42.688h-42.688zM512 384h42.688v42.688H512z" p-id="14779"></path><path d="M213.312 512H256v42.688h-42.688z" fill="#4264AE" p-id="14780"></path><path d="M170.688 512h42.688v42.688h-42.688zM554.688 384h42.688v42.688h-42.688z" p-id="14781"></path><path d="M597.312 384H640v42.688h-42.688zM213.312 554.688H256v42.688h-42.688zM298.688 554.688h42.688v42.688h-42.688zM384 554.688h42.688v42.688H384zM426.688 554.688h42.688v42.688h-42.688z" p-id="14782"></path><path d="M213.312 597.312H256V640h-42.688zM512 554.688h42.688v42.688H512zM213.312 640H256v42.688h-42.688zM597.312 554.688H640v42.688h-42.688zM213.312 682.688H256v42.688h-42.688zM384 768h42.688v42.688H384zM426.688 768h42.688v42.688h-42.688z" p-id="14783"></path><path d="M469.312 768H512v42.688h-42.688zM512 768h42.688v42.688H512zM256 768h42.688v42.688H256zM298.688 768h42.688v42.688h-42.688zM256 810.688h42.688v42.688H256zM597.312 768H640v42.688h-42.688z" p-id="14784"></path><path d="M256 853.312h42.688V896H256zM256 896h42.688v42.688H256zM256 938.688h42.688v42.688H256zM725.312 853.312H768V896h-42.688zM725.312 896H768v42.688h-42.688zM725.312 938.688H768v42.688h-42.688zM554.688 768h42.688v42.688h-42.688zM682.688 768h42.688v42.688h-42.688z" p-id="14785"></path><path d="M725.312 810.688H768v42.688h-42.688zM469.312 128H512v42.688h-42.688zM128 341.312h42.688V384H128zM597.312 0H640v42.688h-42.688zM640 0h42.688v42.688H640zM640 128h42.688v42.688H640zM640 384h42.688v42.688H640zM640 554.688h42.688v42.688H640zM682.688 0h42.688v42.688h-42.688zM682.688 128h42.688v42.688h-42.688zM682.688 256h42.688v42.688h-42.688z" p-id="14786"></path><path d="M725.312 0H768v42.688h-42.688zM640 768h42.688v42.688H640zM853.312 341.312H896V384h-42.688zM298.688 981.312h42.688V1024h-42.688z" p-id="14787"></path><path d="M341.312 981.312H384V1024h-42.688zM384 981.312h42.688V1024H384zM426.688 981.312h42.688V1024h-42.688z" p-id="14788"></path><path d="M469.312 981.312H512V1024h-42.688zM512 981.312h42.688V1024H512zM554.688 981.312h42.688V1024h-42.688z" p-id="14789"></path><path d="M597.312 981.312H640V1024h-42.688zM640 981.312h42.688V1024H640zM682.688 981.312h42.688V1024h-42.688zM170.688 469.312h42.688V512h-42.688zM256 554.688h42.688v42.688H256zM341.312 554.688H384v42.688h-42.688zM469.312 554.688H512v42.688h-42.688zM554.688 554.688h42.688v42.688h-42.688zM213.312 725.312H256V768h-42.688zM341.312 768H384v42.688h-42.688z" p-id="14790"></path></svg>