<?xml version="1.0" standalone="no"?><!DOCTYPE svg PUBLIC "-//W3C//DTD SVG 1.1//EN" "http://www.w3.org/Graphics/SVG/1.1/DTD/svg11.dtd"><svg t="1693832144293" class="icon" viewBox="0 0 1024 1024" version="1.1" xmlns="http://www.w3.org/2000/svg" p-id="15355" xmlns:xlink="http://www.w3.org/1999/xlink" width="200" height="200"><path d="M768 426.688h42.688v42.688H768zM768 768h42.688v42.688H768zM810.688 469.312h42.688V512h-42.688zM810.688 725.312h42.688V768h-42.688z" fill="#FFFFFF" p-id="15356"></path><path d="M853.312 469.312H896V512h-42.688zM896 512h42.688v42.688H896zM896 554.688h42.688v42.688H896z" fill="#FFFFFF" p-id="15357"></path><path d="M896 597.312h42.688V640H896zM896 640h42.688v42.688H896zM896 682.688h42.688v42.688H896zM853.312 725.312H896V768h-42.688zM170.688 170.688h42.688v42.688h-42.688z" fill="#FFFFFF" p-id="15358"></path><path d="M213.312 170.688H256v42.688h-42.688zM256 170.688h42.688v42.688H256zM298.688 170.688h42.688v42.688h-42.688z" fill="#FFFFFF" p-id="15359"></path><path d="M341.312 170.688H384v42.688h-42.688zM384 170.688h42.688v42.688H384zM426.688 170.688h42.688v42.688h-42.688z" fill="#FFFFFF" p-id="15360"></path><path d="M469.312 170.688H512v42.688h-42.688zM128 213.312h42.688V256H128zM170.688 213.312h42.688V256h-42.688z" fill="#FFFFFF" p-id="15361"></path><path d="M213.312 213.312H256V256h-42.688z" fill="#FFFFFF" p-id="15362"></path><path d="M256 213.312h42.688V256H256z" p-id="15363"></path><path d="M298.688 213.312h42.688V256h-42.688z" fill="#FFFFFF" p-id="15364"></path><path d="M341.312 213.312H384V256h-42.688zM384 213.312h42.688V256H384zM426.688 213.312h42.688V256h-42.688z" fill="#FFFFFF" p-id="15365"></path><path d="M469.312 213.312H512V256h-42.688zM85.312 256H128v42.688h-42.688zM128 256h42.688v42.688H128zM170.688 256h42.688v42.688h-42.688z" fill="#FFFFFF" p-id="15366"></path><path d="M213.312 256H256v42.688h-42.688z" p-id="15367"></path><path d="M256 256h42.688v42.688H256zM298.688 256h42.688v42.688h-42.688z" fill="#FFFFFF" p-id="15368"></path><path d="M341.312 256H384v42.688h-42.688zM384 256h42.688v42.688H384zM426.688 256h42.688v42.688h-42.688z" fill="#FFFFFF" p-id="15369"></path><path d="M469.312 256H512v42.688h-42.688zM256 298.688h42.688v42.688H256zM298.688 298.688h42.688v42.688h-42.688z" fill="#FFFFFF" p-id="15370"></path><path d="M512 170.688h42.688v42.688H512z" p-id="15371"></path><path d="M512 213.312h42.688V256H512zM512 256h42.688v42.688H512zM554.688 170.688h42.688v42.688h-42.688z" fill="#FFFFFF" p-id="15372"></path><path d="M554.688 213.312h42.688V256h-42.688zM554.688 256h42.688v42.688h-42.688zM597.312 170.688H640v42.624h-42.688z" fill="#FFFFFF" p-id="15373"></path><path d="M597.312 213.312H640V256h-42.688zM597.312 256H640v42.688h-42.688zM640 213.312h42.688V256H640zM640 256h42.688v42.688H640zM682.688 213.312h42.624V256h-42.624zM640 170.688h42.688v42.624H640zM682.688 170.688h42.688v42.624h-42.688z" fill="#FFFFFF" p-id="15374"></path><path d="M725.312 170.688H768v42.624h-42.688zM341.312 42.688H384v42.688h-42.688zM384 42.688h42.688v42.688H384zM426.688 42.688h42.688v42.688h-42.688z" fill="#FFFFFF" p-id="15375"></path><path d="M469.312 42.688H512v42.688h-42.688zM213.312 85.312H256V128h-42.688zM256 85.312h42.688V128H256zM298.688 85.312h42.688V128h-42.688z" fill="#FFFFFF" p-id="15376"></path><path d="M341.312 85.312H384V128h-42.688z" p-id="15377"></path><path d="M384 85.312h42.688V128H384zM426.688 85.312h42.688V128h-42.688z" fill="#FFFFFF" p-id="15378"></path><path d="M469.312 85.312H512V128h-42.688zM512 85.312h42.688V128H512zM554.688 85.312h42.688V128h-42.688zM256 384h42.688v42.688H256zM298.688 384h42.688v42.688h-42.688zM256 426.688h42.688v42.688H256zM298.688 426.688h42.688v42.688h-42.688z" fill="#FFFFFF" p-id="15379"></path><path d="M298.688 469.312h42.688V512h-42.688zM298.688 512h42.688v42.688h-42.688zM170.688 85.312h42.688V128h-42.688zM170.688 128h42.688v42.688h-42.688z" fill="#FFFFFF" p-id="15380"></path><path d="M213.312 128H256v42.688h-42.688zM256 128h42.688v42.688H256zM298.688 128h42.688v42.688h-42.688z" fill="#FFFFFF" p-id="15381"></path><path d="M341.312 128H384v42.688h-42.688z" fill="#FFFFFF" p-id="15382"></path><path d="M384 128h42.688v42.688H384z" p-id="15383"></path><path d="M426.688 128h42.688v42.688h-42.688z" fill="#FFFFFF" p-id="15384"></path><path d="M469.312 128H512v42.688h-42.688zM128 170.688h42.688v42.688H128zM85.312 170.688H128v42.688h-42.688z" fill="#FFFFFF" p-id="15385"></path><path d="M85.312 213.312H128V256h-42.688zM128 128h42.688v42.688H128zM256 341.312h42.688V384H256zM298.688 341.312h42.688V384h-42.688zM512 128h42.688v42.688H512z" fill="#FFFFFF" p-id="15386"></path><path d="M554.688 128h42.688v42.688h-42.688z" p-id="15387"></path><path d="M597.312 128H640v42.688h-42.688zM640 128h42.688v42.688H640zM682.688 128h42.688v42.688h-42.688zM682.688 256h42.688v42.688h-42.688zM725.312 213.312H768V256h-42.688zM256 469.312h42.688V512H256zM256 512h42.688v42.688H256z" fill="#FFFFFF" p-id="15388"></path><path d="M682.688 384h42.688v42.688h-42.688zM682.688 426.688h42.688v42.688h-42.688z" fill="#FCCD21" p-id="15389"></path><path d="M682.688 469.312h42.688V512h-42.688zM682.688 512h42.688v42.688h-42.688zM682.688 554.688h42.688v42.688h-42.688z" fill="#FCCD21" p-id="15390"></path><path d="M682.688 597.312h42.688V640h-42.688zM682.688 640h42.688v42.688h-42.688zM682.688 682.688h42.688v42.688h-42.688z" fill="#FCCD21" p-id="15391"></path><path d="M682.688 725.312h42.688V768h-42.688zM128 384h42.688v42.688H128zM170.688 384h42.688v42.688h-42.688zM384 384h42.688v42.688H384zM426.688 384h42.688v42.688h-42.688z" fill="#FCCD21" p-id="15392"></path><path d="M469.312 384H512v42.688h-42.688zM128 426.688h42.688v42.688H128zM170.688 426.688h42.688v42.688h-42.688zM469.312 426.688H512v42.688h-42.688zM512 384h42.688v42.688H512zM512 426.688h42.688v42.688H512z" fill="#FCCD21" p-id="15393"></path><path d="M512 469.312h42.688V512H512zM554.688 384h42.688v42.688h-42.688z" fill="#FCCD21" p-id="15394"></path><path d="M597.312 384H640v42.688h-42.688zM128 554.688h42.688v42.688H128z" fill="#FCCD21" p-id="15395"></path><path d="M128 597.312h42.688V640H128zM298.688 597.312h42.688V640h-42.688zM512 554.688h42.688v42.688H512z" fill="#FCCD21" p-id="15396"></path><path d="M512 597.312h42.688V640H512zM128 640h42.688v42.688H128zM170.688 640h42.688v42.688h-42.688zM298.688 640h42.688v42.688h-42.688z" fill="#FCCD21" p-id="15397"></path><path d="M341.312 640H384v42.688h-42.688zM469.312 640H512v42.688h-42.688zM512 640h42.688v42.688H512zM128 682.688h42.688v42.688H128zM170.688 682.688h42.688v42.688h-42.688zM298.688 682.688h42.688v42.688h-42.688z" fill="#FCCD21" p-id="15398"></path><path d="M341.312 682.688H384v42.688h-42.688zM469.312 682.688H512v42.688h-42.688zM512 682.688h42.688v42.688H512zM128 725.312h42.688V768H128zM170.688 725.312h42.688V768h-42.688z" fill="#FCCD21" p-id="15399"></path><path d="M341.312 725.312H384V768h-42.688zM469.312 725.312H512V768h-42.688zM128 768h42.688v42.688H128zM469.312 768H512v42.688h-42.688zM512 725.312h42.688V768H512zM512 768h42.688v42.688H512zM469.312 810.688H512v42.688h-42.688zM298.688 768h42.688v42.688h-42.688zM170.688 810.688h42.688v42.688h-42.688zM298.688 810.688h42.688v42.688h-42.688z" fill="#FCCD21" p-id="15400"></path><path d="M341.312 810.688H384v42.688h-42.688zM128 853.312h42.688V896H128zM170.688 853.312h42.688V896h-42.688z" fill="#FCCD21" p-id="15401"></path><path d="M298.688 853.312h42.688V896h-42.688z" fill="#FCCD21" p-id="15402"></path><path d="M341.312 853.312H384V896h-42.688zM512 853.312h42.688V896H512zM128 896h42.688v42.688H128zM170.688 896h42.688v42.688h-42.688z" fill="#FCCD21" p-id="15403"></path><path d="M213.312 896H256v42.688h-42.688zM256 896h42.688v42.688H256zM298.688 896h42.688v42.688h-42.688z" fill="#FCCD21" p-id="15404"></path><path d="M341.312 896H384v42.688h-42.688zM384 896h42.688v42.688H384zM426.688 896h42.688v42.688h-42.688z" fill="#FCCD21" p-id="15405"></path><path d="M469.312 896H512v42.688h-42.688zM128 938.688h42.688v42.688H128zM170.688 938.688h42.688v42.688h-42.688z" fill="#FCCD21" p-id="15406"></path><path d="M213.312 938.688H256v42.688h-42.688zM256 938.688h42.688v42.688H256zM298.688 938.688h42.688v42.688h-42.688z" fill="#FCCD21" p-id="15407"></path><path d="M341.312 938.688H384v42.688h-42.688zM384 938.688h42.688v42.688H384zM426.688 938.688h42.688v42.688h-42.688z" fill="#FCCD21" p-id="15408"></path><path d="M469.312 938.688H512v42.688h-42.688zM512 896h42.688v42.688H512zM512 938.688h42.688v42.688H512zM554.688 896h42.688v42.688h-42.688zM554.688 938.688h42.688v42.688h-42.688z" fill="#FCCD21" p-id="15409"></path><path d="M597.312 896H640v42.688h-42.688zM597.312 938.688H640v42.688h-42.688zM682.688 853.312h42.688V896h-42.688zM682.688 896h42.688v42.688h-42.688zM682.688 938.688h42.688v42.688h-42.688z" fill="#FCCD21" p-id="15410"></path><path d="M682.688 810.688h42.688v42.688h-42.688zM512 810.688h42.688v42.688H512zM682.688 768h42.688v42.688h-42.688zM469.312 853.312H512V896h-42.688zM128 341.312h42.688V384H128zM170.688 341.312h42.688V384h-42.688zM384 341.312h42.688V384H384zM426.688 341.312h42.688V384h-42.688z" fill="#FCCD21" p-id="15411"></path><path d="M469.312 341.312H512V384h-42.688zM512 341.312h42.688V384H512zM554.688 341.312h42.688V384h-42.688z" fill="#FCCD21" p-id="15412"></path><path d="M597.312 341.312H640V384h-42.688zM640 341.312h42.688V384H640zM640 384h42.688v42.688H640zM640 426.688h42.688v42.688H640z" fill="#FCCD21" p-id="15413"></path><path d="M640 469.312h42.688V512H640zM640 512h42.688v42.688H640zM640 554.688h42.688v42.688H640z" fill="#FCCD21" p-id="15414"></path><path d="M640 597.312h42.688V640H640zM640 640h42.688v42.688H640zM682.688 341.312h42.688V384h-42.688zM640 682.688h42.688v42.688H640z" fill="#FCCD21" p-id="15415"></path><path d="M640 725.312h42.688V768H640zM640 768h42.688v42.688H640zM640 810.688h42.688v42.688H640z" fill="#FCCD21" p-id="15416"></path><path d="M640 853.312h42.688V896H640zM640 896h42.688v42.688H640zM640 938.688h42.688v42.688H640zM128 469.312h42.688V512H128zM170.688 469.312h42.688V512h-42.688zM469.312 469.312H512V512h-42.688zM128 512h42.688v42.688H128zM170.688 512h42.688v42.688h-42.688zM469.312 512H512v42.688h-42.688zM512 512h42.688v42.688H512zM170.688 554.688h42.688v42.688h-42.688zM341.312 554.688H384v42.688h-42.688zM469.312 554.688H512v42.688h-42.688z" fill="#FCCD21" p-id="15417"></path><path d="M170.688 597.312h42.688V640h-42.688zM341.312 597.312H384V640h-42.688zM469.312 597.312H512V640h-42.688z" fill="#FCCD21" p-id="15418"></path><path d="M554.688 426.688h42.688v42.688h-42.688z" fill="#F7B025" p-id="15419"></path><path d="M597.312 426.688H640v42.688h-42.688z" fill="#F7B025" p-id="15420"></path><path d="M597.312 469.312H640V512h-42.688zM554.688 512h42.688v42.688h-42.688z" fill="#F7B025" p-id="15421"></path><path d="M597.312 512H640v42.688h-42.688zM597.312 554.688H640v42.688h-42.688z" fill="#F7B025" p-id="15422"></path><path d="M597.312 597.312H640V640h-42.688zM554.688 640h42.688v42.688h-42.688z" fill="#F7B025" p-id="15423"></path><path d="M597.312 640H640v42.688h-42.688zM554.688 682.688h42.688v42.688h-42.688z" fill="#F7B025" p-id="15424"></path><path d="M597.312 682.688H640v42.688h-42.688z" fill="#F7B025" p-id="15425"></path><path d="M554.688 725.312h42.688V768h-42.688zM597.312 768H640v42.688h-42.688zM554.688 810.688h42.688v42.688h-42.688z" fill="#F7B025" p-id="15426"></path><path d="M597.312 810.688H640v42.688h-42.688z" fill="#F7B025" p-id="15427"></path><path d="M554.688 853.312h42.688V896h-42.688z" fill="#F7B025" p-id="15428"></path><path d="M597.312 853.312H640V896h-42.688zM554.688 768h42.688v42.688h-42.688zM597.312 725.312H640V768h-42.688zM554.688 469.312h42.688V512h-42.688zM554.688 554.688h42.688v42.688h-42.688z" fill="#F7B025" p-id="15429"></path><path d="M554.688 597.312h42.688V640h-42.688zM213.312 554.688H256v42.688h-42.688z" fill="#F7B025" p-id="15430"></path><path d="M213.312 597.312H256V640h-42.688zM213.312 640H256v42.688h-42.688zM256 640h42.688v42.688H256zM213.312 682.688H256v42.688h-42.688zM256 682.688h42.688v42.688H256zM213.312 768H256v42.688h-42.688zM256 768h42.688v42.688H256zM213.312 810.688H256v42.688h-42.688zM256 810.688h42.688v42.688H256z" fill="#F7B025" p-id="15431"></path><path d="M213.312 853.312H256V896h-42.688zM256 853.312h42.688V896H256zM256 597.312h42.688V640H256zM213.312 725.312H256V768h-42.688zM256 725.312h42.688V768H256z" fill="#F7B025" p-id="15432"></path><path d="M298.688 725.312h42.688V768h-42.688zM170.688 768h42.688v42.688h-42.688zM341.312 768H384v42.688h-42.688zM128 810.688h42.688v42.688H128z" fill="#FCCD21" p-id="15433"></path><path d="M384 426.688h42.688v42.688H384zM426.688 426.688h42.688v42.688h-42.688z" fill="#F7B025" p-id="15434"></path><path d="M384 469.312h42.688V512H384zM426.688 469.312h42.688V512h-42.688zM384 512h42.688v42.688H384zM426.688 512h42.688v42.688h-42.688zM384 554.688h42.688v42.688H384zM426.688 554.688h42.688v42.688h-42.688z" fill="#F7B025" p-id="15435"></path><path d="M426.688 597.312h42.688V640h-42.688zM384 640h42.688v42.688H384zM426.688 640h42.688v42.688h-42.688zM384 682.688h42.688v42.688H384zM426.688 682.688h42.688v42.688h-42.688z" fill="#F7B025" p-id="15436"></path><path d="M384 725.312h42.688V768H384zM426.688 725.312h42.688V768h-42.688zM384 768h42.688v42.688H384zM426.688 768h42.688v42.688h-42.688zM426.688 810.688h42.688v42.688h-42.688zM384 853.312h42.688V896H384z" fill="#F7B025" p-id="15437"></path><path d="M426.688 853.312h42.688V896h-42.688zM384 597.312h42.688V640H384zM384 810.688h42.688v42.688H384z" fill="#F7B025" p-id="15438"></path><path d="M85.312 298.688H128v42.688h-42.688zM128 298.688h42.688v42.688H128zM170.688 298.688h42.688v42.688h-42.688z" p-id="15439"></path><path d="M213.312 298.688H256v42.688h-42.688zM341.312 298.688H384v42.688h-42.688zM384 298.688h42.688v42.688H384zM426.688 298.688h42.688v42.688h-42.688z" p-id="15440"></path><path d="M469.312 298.688H512v42.688h-42.688zM512 298.688h42.688v42.688H512zM554.688 298.688h42.688v42.688h-42.688z" p-id="15441"></path><path d="M597.312 298.688H640v42.688h-42.688zM213.312 42.688H256v42.688h-42.688zM256 42.688h42.688v42.688H256zM298.688 42.688h42.688v42.688h-42.688zM512 42.688h42.688v42.688H512zM554.688 42.688h42.688v42.688h-42.688z" p-id="15442"></path><path d="M597.312 85.312H640V128h-42.688zM640 85.312h42.688V128H640zM682.688 85.312h42.688V128h-42.688zM682.688 298.688h42.688v42.688h-42.688zM725.312 256H768v42.688h-42.688z" p-id="15443"></path><path d="M725.312 298.688H768v42.688h-42.688zM768 213.312h42.688V256H768zM725.312 384H768v42.688h-42.688zM725.312 426.688H768v42.688h-42.688z" p-id="15444"></path><path d="M725.312 469.312H768V512h-42.688zM725.312 512H768v42.688h-42.688zM768 384h42.688v42.688H768zM768 469.312h42.688V512H768zM725.312 554.688H768v42.688h-42.688z" p-id="15445"></path><path d="M725.312 597.312H768V640h-42.688zM725.312 640H768v42.688h-42.688zM725.312 682.688H768v42.688h-42.688z" p-id="15446"></path><path d="M725.312 725.312H768V768h-42.688zM725.312 768H768v42.688h-42.688zM768 725.312h42.688V768H768zM768 810.688h42.688v42.688H768zM810.688 426.688h42.688v42.688h-42.688zM810.688 512h42.688v42.688h-42.688zM810.688 682.688h42.688v42.688h-42.688zM810.688 768h42.688v42.688h-42.688z" p-id="15447"></path><path d="M853.312 426.688H896v42.688h-42.688zM896 469.312h42.688V512H896zM853.312 512H896v42.688h-42.688zM938.688 512h42.688v42.688h-42.688zM853.312 554.688H896v42.688h-42.688z" p-id="15448"></path><path d="M853.312 597.312H896V640h-42.688zM853.312 640H896v42.688h-42.688zM938.688 554.688h42.688v42.688h-42.688z" p-id="15449"></path><path d="M938.688 597.312h42.688V640h-42.688zM938.688 640h42.688v42.688h-42.688zM853.312 682.688H896v42.688h-42.688zM938.688 682.688h42.688v42.688h-42.688zM853.312 768H896v42.688h-42.688zM896 725.312h42.688V768H896zM85.312 384H128v42.688h-42.688zM213.312 384H256v42.688h-42.688zM341.312 384H384v42.688h-42.688zM85.312 426.688H128v42.688h-42.688zM213.312 426.688H256v42.688h-42.688zM341.312 426.688H384v42.688h-42.688z" p-id="15450"></path><path d="M213.312 469.312H256V512h-42.688zM213.312 512H256v42.688h-42.688zM298.688 554.688h42.688v42.688h-42.688zM85.312 640H128v42.688h-42.688zM85.312 682.688H128v42.688h-42.688z" p-id="15451"></path><path d="M85.312 725.312H128V768h-42.688zM85.312 768H128v42.688h-42.688zM85.312 853.312H128V896h-42.688zM85.312 896H128v42.688h-42.688zM85.312 938.688H128v42.688h-42.688zM725.312 853.312H768V896h-42.688zM725.312 896H768v42.688h-42.688zM725.312 938.688H768v42.688h-42.688z" p-id="15452"></path><path d="M725.312 810.688H768v42.688h-42.688zM341.312 0H384v42.688h-42.688zM384 0h42.688v42.688H384zM426.688 0h42.688v42.688h-42.688z" p-id="15453"></path><path d="M469.312 0H512v42.688h-42.688zM170.688 42.688h42.688v42.688h-42.688zM42.688 256h42.688v42.688H42.688zM42.688 213.312h42.688V256H42.688z" p-id="15454"></path><path d="M42.688 170.688h42.688v42.688H42.688zM85.312 128H128v42.688h-42.688zM128 85.312h42.688V128H128zM85.312 341.312H128V384h-42.688zM213.312 341.312H256V384h-42.688zM341.312 341.312H384V384h-42.688zM640 298.688h42.688v42.688H640zM725.312 128H768v42.688h-42.688zM725.312 341.312H768V384h-42.688zM768 170.688h42.688v42.688H768zM128 981.312h42.688V1024H128zM170.688 981.312h42.688V1024h-42.688z" p-id="15455"></path><path d="M213.312 981.312H256V1024h-42.688zM256 981.312h42.688V1024H256zM298.688 981.312h42.688V1024h-42.688z" p-id="15456"></path><path d="M341.312 981.312H384V1024h-42.688zM384 981.312h42.688V1024H384zM426.688 981.312h42.688V1024h-42.688z" p-id="15457"></path><path d="M469.312 981.312H512V1024h-42.688zM512 981.312h42.688V1024H512zM554.688 981.312h42.688V1024h-42.688z" p-id="15458"></path><path d="M597.312 981.312H640V1024h-42.688zM640 981.312h42.688V1024H640zM682.688 981.312h42.688V1024h-42.688zM85.312 469.312H128V512h-42.688zM341.312 469.312H384V512h-42.688zM85.312 512H128v42.688h-42.688zM341.312 512H384v42.688h-42.688zM85.312 554.688H128v42.688h-42.688zM256 554.688h42.688v42.688H256z" p-id="15459"></path><path d="M85.312 597.312H128V640h-42.688zM85.312 810.688H128v42.688h-42.688z" p-id="15460"></path></svg>