<?xml version="1.0" standalone="no"?><!DOCTYPE svg PUBLIC "-//W3C//DTD SVG 1.1//EN" "http://www.w3.org/Graphics/SVG/1.1/DTD/svg11.dtd"><svg t="1693832166432" class="icon" viewBox="0 0 1024 1024" version="1.1" xmlns="http://www.w3.org/2000/svg" p-id="15608" xmlns:xlink="http://www.w3.org/1999/xlink" width="200" height="200"><path d="M682.688 512h42.688v42.688h-42.688z" p-id="15609"></path><path d="M725.312 512H768v42.688h-42.688zM768 469.312h42.688V512H768z" p-id="15610"></path><path d="M768 512h42.688v42.688H768zM682.688 554.688h42.688v42.688h-42.688z" fill="#388F39" p-id="15611"></path><path d="M682.688 597.312h42.688V640h-42.688z" fill="#FDCD00" p-id="15612"></path><path d="M725.312 554.688H768v42.688h-42.688z" fill="#388F39" p-id="15613"></path><path d="M725.312 597.312H768V640h-42.688zM682.688 640h42.688v42.688h-42.688z" fill="#388F39" p-id="15614"></path><path d="M725.312 640H768v42.688h-42.688z" fill="#FDCD00" p-id="15615"></path><path d="M768 554.688h42.688v42.688H768z" fill="#388F39" p-id="15616"></path><path d="M768 597.312h42.688V640H768zM768 640h42.688v42.688H768z" fill="#388F39" p-id="15617"></path><path d="M682.688 682.688h42.688v42.688h-42.688z" fill="#FDCD00" p-id="15618"></path><path d="M725.312 682.688H768v42.688h-42.688zM768 682.688h42.688v42.688H768z" fill="#FDCD00" p-id="15619"></path><path d="M682.688 725.312h42.688V768h-42.688z" fill="#388F39" p-id="15620"></path><path d="M725.312 725.312H768V768h-42.688z" fill="#FDCD00" p-id="15621"></path><path d="M725.312 768H768v42.688h-42.688z" p-id="15622"></path><path d="M768 725.312h42.688V768H768zM768 768h42.688v42.688H768z" fill="#388F39" p-id="15623"></path><path d="M768 810.688h42.688v42.688H768zM810.688 469.312h42.688V512h-42.688z" p-id="15624"></path><path d="M810.688 512h42.688v42.688h-42.688zM810.688 554.688h42.688v42.688h-42.688z" fill="#388F39" p-id="15625"></path><path d="M810.688 597.312h42.688V640h-42.688z" fill="#388F39" p-id="15626"></path><path d="M810.688 640h42.688v42.688h-42.688z" fill="#FDCD00" p-id="15627"></path><path d="M810.688 682.688h42.688v42.688h-42.688z" fill="#388F39" p-id="15628"></path><path d="M810.688 725.312h42.688V768h-42.688zM810.688 768h42.688v42.688h-42.688z" fill="#388F39" p-id="15629"></path><path d="M810.688 810.688h42.688v42.688h-42.688z" p-id="15630"></path><path d="M853.312 469.312H896V512h-42.688zM853.312 512H896v42.688h-42.688zM853.312 554.688H896v42.688h-42.688z" fill="#388F39" p-id="15631"></path><path d="M853.312 597.312H896V640h-42.688zM896 554.688h42.688v42.688H896z" fill="#FDCD00" p-id="15632"></path><path d="M896 597.312h42.688V640H896zM853.312 640H896v42.688h-42.688zM896 640h42.688v42.688H896zM853.312 682.688H896v42.688h-42.688zM896 682.688h42.688v42.688H896zM938.688 682.688h42.688v42.688h-42.688z" fill="#388F39" p-id="15633"></path><path d="M853.312 725.312H896V768h-42.688zM853.312 768H896v42.688h-42.688zM896 725.312h42.688V768H896z" fill="#388F39" p-id="15634"></path><path d="M170.688 384h42.688v42.688h-42.688z" p-id="15635"></path><path d="M170.688 426.688h42.688v42.688h-42.688z" fill="#388F39" p-id="15636"></path><path d="M213.312 469.312H256V512h-42.688z" fill="#388F39" p-id="15637"></path><path d="M298.688 469.312h42.688V512h-42.688z" p-id="15638"></path><path d="M213.312 512H256v42.688h-42.688zM298.688 512h42.688v42.688h-42.688z" fill="#388F39" p-id="15639"></path><path d="M384 512h42.688v42.688H384z" p-id="15640"></path><path d="M128 554.688h42.688v42.688H128zM213.312 554.688H256v42.688h-42.688zM298.688 554.688h42.688v42.688h-42.688zM384 554.688h42.688v42.688H384z" fill="#388F39" p-id="15641"></path><path d="M426.688 554.688h42.688v42.688h-42.688z" p-id="15642"></path><path d="M128 597.312h42.688V640H128z" fill="#FDCD00" p-id="15643"></path><path d="M213.312 597.312H256V640h-42.688zM298.688 597.312h42.688V640h-42.688z" fill="#388F39" p-id="15644"></path><path d="M426.688 597.312h42.688V640h-42.688z" fill="#FDCD00" p-id="15645"></path><path d="M512 597.312h42.688V640H512z" fill="#FFFFFF" p-id="15646"></path><path d="M85.312 640H128v42.688h-42.688zM128 640h42.688v42.688H128zM170.688 640h42.688v42.688h-42.688z" fill="#388F39" p-id="15647"></path><path d="M213.312 640H256v42.688h-42.688z" fill="#FDCD00" p-id="15648"></path><path d="M256 640h42.688v42.688H256z" fill="#388F39" p-id="15649"></path><path d="M298.688 640h42.688v42.688h-42.688z" fill="#FDCD00" p-id="15650"></path><path d="M341.312 640H384v42.688h-42.688zM384 640h42.688v42.688H384zM426.688 640h42.688v42.688h-42.688z" fill="#388F39" p-id="15651"></path><path d="M469.312 640H512v42.688h-42.688z" fill="#FDCD00" p-id="15652"></path><path d="M512 640h42.688v42.688H512zM597.312 554.688H640v42.688h-42.688z" p-id="15653"></path><path d="M597.312 597.312H640V640h-42.688zM554.688 640h42.688v42.688h-42.688z" fill="#FDCD00" p-id="15654"></path><path d="M597.312 640H640v42.688h-42.688zM42.688 682.688h42.688v42.688H42.688z" fill="#388F39" p-id="15655"></path><path d="M85.312 682.688H128v42.688h-42.688zM128 682.688h42.688v42.688H128zM170.688 682.688h42.688v42.688h-42.688z" fill="#388F39" p-id="15656"></path><path d="M213.312 682.688H256v42.688h-42.688z" fill="#388F39" p-id="15657"></path><path d="M256 682.688h42.688v42.688H256zM298.688 682.688h42.688v42.688h-42.688z" fill="#FDCD00" p-id="15658"></path><path d="M341.312 682.688H384v42.688h-42.688zM384 682.688h42.688v42.688H384zM426.688 682.688h42.688v42.688h-42.688z" fill="#FDCD00" p-id="15659"></path><path d="M469.312 682.688H512v42.688h-42.688zM512 682.688h42.688v42.688H512zM554.688 682.688h42.688v42.688h-42.688z" fill="#FDCD00" p-id="15660"></path><path d="M597.312 682.688H640v42.688h-42.688z" fill="#FDCD00" p-id="15661"></path><path d="M42.688 725.312h42.688V768H42.688z" fill="#388F39" p-id="15662"></path><path d="M85.312 725.312H128V768h-42.688zM128 725.312h42.688V768H128zM170.688 725.312h42.688V768h-42.688z" fill="#388F39" p-id="15663"></path><path d="M341.312 725.312H384V768h-42.688zM384 725.312h42.688V768H384z" p-id="15664"></path><path d="M426.688 725.312h42.688V768h-42.688z" fill="#388F39" p-id="15665"></path><path d="M469.312 725.312H512V768h-42.688z" fill="#FDCD00" p-id="15666"></path><path d="M42.688 768h42.688v42.688H42.688z" fill="#388F39" p-id="15667"></path><path d="M85.312 768H128v42.688h-42.688zM128 768h42.688v42.688H128z" fill="#388F39" p-id="15668"></path><path d="M384 768h42.688v42.688H384zM426.688 768h42.688v42.688h-42.688z" fill="#FDCD00" p-id="15669"></path><path d="M469.312 768H512v42.688h-42.688z" fill="#388F39" p-id="15670"></path><path d="M512 725.312h42.688V768H512zM512 768h42.688v42.688H512z" fill="#FDCD00" p-id="15671"></path><path d="M42.688 810.688h42.688v42.688H42.688z" fill="#388F39" p-id="15672"></path><path d="M554.688 725.312h42.688V768h-42.688z" fill="#FDCD00" p-id="15673"></path><path d="M426.688 810.688h42.688v42.688h-42.688z" fill="#388F39" p-id="15674"></path><path d="M469.312 810.688H512v42.688h-42.688z" fill="#FDCD00" p-id="15675"></path><path d="M213.312 768H256v42.688h-42.688zM256 768h42.688v42.688H256z" fill="#388F39" p-id="15676"></path><path d="M298.688 768h42.688v42.688h-42.688z" p-id="15677"></path><path d="M170.688 810.688h42.688v42.688h-42.688z" fill="#388F39" p-id="15678"></path><path d="M213.312 810.688H256v42.688h-42.688zM256 810.688h42.688v42.688H256z" p-id="15679"></path><path d="M298.688 810.688h42.688v42.688h-42.688z" fill="#388F39" p-id="15680"></path><path d="M341.312 810.688H384v42.688h-42.688z" fill="#388F39" p-id="15681"></path><path d="M597.312 768H640v42.688h-42.688zM554.688 810.688h42.688v42.688h-42.688z" fill="#FDCD00" p-id="15682"></path><path d="M597.312 810.688H640v42.688h-42.688zM85.312 853.312H128V896h-42.688z" fill="#388F39" p-id="15683"></path><path d="M128 853.312h42.688V896H128zM170.688 853.312h42.688V896h-42.688z" p-id="15684"></path><path d="M213.312 853.312H256V896h-42.688zM256 853.312h42.688V896H256zM298.688 853.312h42.688V896h-42.688z" fill="#388F39" p-id="15685"></path><path d="M341.312 853.312H384V896h-42.688zM384 853.312h42.688V896H384zM512 853.312h42.688V896H512zM554.688 853.312h42.688V896h-42.688z" fill="#388F39" p-id="15686"></path><path d="M597.312 853.312H640V896h-42.688z" fill="#FDCD00" p-id="15687"></path><path d="M42.688 896h42.688v42.688H42.688z" p-id="15688"></path><path d="M85.312 896H128v42.688h-42.688z" p-id="15689"></path><path d="M128 896h42.688v42.688H128zM170.688 896h42.688v42.688h-42.688z" fill="#388F39" p-id="15690"></path><path d="M213.312 896H256v42.688h-42.688zM256 896h42.688v42.688H256zM298.688 896h42.688v42.688h-42.688z" fill="#388F39" p-id="15691"></path><path d="M341.312 896H384v42.688h-42.688zM384 896h42.688v42.688H384zM426.688 896h42.688v42.688h-42.688z" fill="#388F39" p-id="15692"></path><path d="M469.312 896H512v42.688h-42.688z" fill="#FDCD00" p-id="15693"></path><path d="M213.312 938.688H256v42.688h-42.688zM256 938.688h42.688v42.688H256zM298.688 938.688h42.688v42.688h-42.688z" fill="#388F39" p-id="15694"></path><path d="M341.312 938.688H384v42.688h-42.688zM384 938.688h42.688v42.688H384zM426.688 938.688h42.688v42.688h-42.688z" fill="#388F39" p-id="15695"></path><path d="M469.312 938.688H512v42.688h-42.688zM512 896h42.688v42.688H512z" fill="#388F39" p-id="15696"></path><path d="M512 938.688h42.688v42.688H512z" fill="#FDCD00" p-id="15697"></path><path d="M554.688 896h42.688v42.688h-42.688zM554.688 938.688h42.688v42.688h-42.688z" fill="#388F39" p-id="15698"></path><path d="M597.312 896H640v42.688h-42.688z" fill="#FDCD00" p-id="15699"></path><path d="M597.312 938.688H640v42.688h-42.688zM682.688 853.312h42.688V896h-42.688zM682.688 896h42.688v42.688h-42.688z" fill="#388F39" p-id="15700"></path><path d="M682.688 938.688h42.688v42.688h-42.688z" fill="#FDCD00" p-id="15701"></path><path d="M682.688 810.688h42.688v42.688h-42.688zM896 810.688h42.688v42.688H896zM938.688 768h42.688v42.688h-42.688zM938.688 810.688h42.688v42.688h-42.688z" fill="#388F39" p-id="15702"></path><path d="M725.312 853.312H768V896h-42.688zM725.312 896H768v42.688h-42.688zM725.312 938.688H768v42.688h-42.688zM768 896h42.688v42.688H768zM768 938.688h42.688v42.688H768zM810.688 896h42.688v42.688h-42.688z" fill="#388F39" p-id="15703"></path><path d="M853.312 853.312H896V896h-42.688z" p-id="15704"></path><path d="M896 853.312h42.688V896H896zM938.688 853.312h42.688V896h-42.688zM853.312 896H896v42.688h-42.688z" fill="#388F39" p-id="15705"></path><path d="M896 896h42.688v42.688H896zM938.688 896h42.688v42.688h-42.688z" p-id="15706"></path><path d="M512 810.688h42.688v42.688H512zM554.688 768h42.688v42.688h-42.688z" fill="#388F39" p-id="15707"></path><path d="M597.312 725.312H640V768h-42.688z" p-id="15708"></path><path d="M682.688 768h42.688v42.688h-42.688z" fill="#FDCD00" p-id="15709"></path><path d="M725.312 810.688H768v42.688h-42.688zM896 768h42.688v42.688H896zM853.312 810.688H896v42.688h-42.688zM938.688 725.312h42.688V768h-42.688zM42.688 853.312h42.688V896H42.688zM426.688 853.312h42.688V896h-42.688z" fill="#388F39" p-id="15710"></path><path d="M469.312 853.312H512V896h-42.688z" fill="#FDCD00" p-id="15711"></path><path d="M768 853.312h42.688V896H768zM810.688 853.312h42.688V896h-42.688z" fill="#388F39" p-id="15712"></path><path d="M640 554.688h42.688v42.688H640z" p-id="15713"></path><path d="M640 597.312h42.688V640H640z" fill="#FDCD00" p-id="15714"></path><path d="M640 640h42.688v42.688H640z" fill="#388F39" p-id="15715"></path><path d="M640 682.688h42.688v42.688H640z" fill="#FDCD00" p-id="15716"></path><path d="M640 725.312h42.688V768H640z" p-id="15717"></path><path d="M640 768h42.688v42.688H640z" fill="#FDCD00" p-id="15718"></path><path d="M640 810.688h42.688v42.688H640z" fill="#388F39" p-id="15719"></path><path d="M640 853.312h42.688V896H640zM640 896h42.688v42.688H640z" fill="#388F39" p-id="15720"></path><path d="M640 938.688h42.688v42.688H640z" fill="#FDCD00" p-id="15721"></path><path d="M128 469.312h42.688V512H128zM170.688 469.312h42.688V512h-42.688z" fill="#388F39" p-id="15722"></path><path d="M256 469.312h42.688V512H256z" p-id="15723"></path><path d="M128 512h42.688v42.688H128zM170.688 512h42.688v42.688h-42.688zM256 512h42.688v42.688H256z" fill="#388F39" p-id="15724"></path><path d="M341.312 512H384v42.688h-42.688z" p-id="15725"></path><path d="M85.312 554.688H128v42.688h-42.688z" fill="#FDCD00" p-id="15726"></path><path d="M170.688 554.688h42.688v42.688h-42.688zM256 554.688h42.688v42.688H256zM341.312 554.688H384v42.688h-42.688zM85.312 597.312H128V640h-42.688z" fill="#388F39" p-id="15727"></path><path d="M170.688 597.312h42.688V640h-42.688z" fill="#FDCD00" p-id="15728"></path><path d="M256 597.312h42.688V640H256z" fill="#388F39" p-id="15729"></path><path d="M341.312 597.312H384V640h-42.688zM384 597.312h42.688V640H384z" fill="#FDCD00" p-id="15730"></path><path d="M469.312 597.312H512V640h-42.688z" p-id="15731"></path><path d="M341.312 170.688H384v42.688h-42.688zM384 170.688h42.688v42.688H384zM426.688 170.688h42.688v42.688h-42.688z" fill="#FFFFFF" p-id="15732"></path><path d="M469.312 170.688H512v42.688h-42.688zM298.688 213.312h42.688V256h-42.688z" fill="#FFFFFF" p-id="15733"></path><path d="M341.312 213.312H384V256h-42.688zM384 213.312h42.688V256H384z" fill="#FFFFFF" p-id="15734"></path><path d="M426.688 213.312h42.688V256h-42.688z" fill="#E6E6E6" p-id="15735"></path><path d="M469.312 213.312H512V256h-42.688zM256 256h42.688v42.688H256zM298.688 256h42.688v42.688h-42.688z" fill="#FFFFFF" p-id="15736"></path><path d="M341.312 256H384v42.688h-42.688zM384 256h42.688v42.688H384zM426.688 256h42.688v42.688h-42.688z" fill="#FFFFFF" p-id="15737"></path><path d="M469.312 256H512v42.688h-42.688zM256 298.688h42.688v42.688H256z" fill="#FFFFFF" p-id="15738"></path><path d="M298.688 298.688h42.688v42.688h-42.688z" fill="#E6E6E6" p-id="15739"></path><path d="M341.312 298.688H384v42.688h-42.688zM384 298.688h42.688v42.688H384zM426.688 298.688h42.688v42.688h-42.688z" fill="#FFFFFF" p-id="15740"></path><path d="M469.312 298.688H512v42.688h-42.688zM512 170.688h42.688v42.688H512z" fill="#FFFFFF" p-id="15741"></path><path d="M512 213.312h42.688V256H512zM512 256h42.688v42.688H512zM512 298.688h42.688v42.688H512zM554.688 170.688h42.688v42.688h-42.688z" fill="#FFFFFF" p-id="15742"></path><path d="M554.688 213.312h42.688V256h-42.688zM554.688 256h42.688v42.688h-42.688zM554.688 298.688h42.688v42.688h-42.688zM597.312 170.688H640v42.624h-42.688z" fill="#FFFFFF" p-id="15743"></path><path d="M597.312 213.312H640V256h-42.688zM597.312 256H640v42.688h-42.688zM597.312 298.688H640v42.688h-42.688zM640 213.312h42.688V256H640z" fill="#FFFFFF" p-id="15744"></path><path d="M640 256h42.688v42.688H640z" fill="#E6E6E6" p-id="15745"></path><path d="M682.688 213.312h42.624V256h-42.624zM640 170.688h42.688v42.624H640zM426.688 42.688h42.688v42.688h-42.688z" fill="#FFFFFF" p-id="15746"></path><path d="M469.312 42.688H512v42.688h-42.688zM384 85.312h42.688V128H384z" fill="#FFFFFF" p-id="15747"></path><path d="M426.688 85.312h42.688V128h-42.688z" fill="#FFFFFF" p-id="15748"></path><path d="M469.312 85.312H512V128h-42.688zM512 42.688h42.688v42.688H512z" fill="#FFFFFF" p-id="15749"></path><path d="M512 85.312h42.688V128H512zM554.688 42.688h42.688v42.688h-42.688z" fill="#FFFFFF" p-id="15750"></path><path d="M554.688 85.312h42.688V128h-42.688z" fill="#FFFFFF" p-id="15751"></path><path d="M597.312 85.312H640V128h-42.688zM682.688 298.688h42.688v42.688h-42.688zM725.312 256H768v42.688h-42.688z" fill="#FFFFFF" p-id="15752"></path><path d="M725.312 298.688H768v42.688h-42.688zM682.688 384h42.688v42.688h-42.688zM682.688 426.688h42.688v42.688h-42.688z" fill="#FFFFFF" p-id="15753"></path><path d="M682.688 469.312h42.688V512h-42.688z" fill="#FFFFFF" p-id="15754"></path><path d="M725.312 384H768v42.688h-42.688z" fill="#E6E6E6" p-id="15755"></path><path d="M725.312 426.688H768v42.688h-42.688z" fill="#FFFFFF" p-id="15756"></path><path d="M725.312 469.312H768V512h-42.688zM768 384h42.688v42.688H768zM768 426.688h42.688v42.688H768zM810.688 384h42.688v42.688h-42.688zM810.688 426.688h42.688v42.688h-42.688zM213.312 384H256v42.688h-42.688zM256 384h42.688v42.688H256zM298.688 384h42.688v42.688h-42.688z" fill="#FFFFFF" p-id="15757"></path><path d="M341.312 384H384v42.688h-42.688zM384 384h42.688v42.688H384zM426.688 384h42.688v42.688h-42.688z" fill="#FFFFFF" p-id="15758"></path><path d="M469.312 384H512v42.688h-42.688z" fill="#FFFFFF" p-id="15759"></path><path d="M213.312 426.688H256v42.688h-42.688z" p-id="15760"></path><path d="M256 426.688h42.688v42.688H256zM298.688 426.688h42.688v42.688h-42.688z" fill="#FFFFFF" p-id="15761"></path><path d="M341.312 426.688H384v42.688h-42.688z" fill="#FFFFFF" p-id="15762"></path><path d="M384 426.688h42.688v42.688H384z" fill="#E6E6E6" p-id="15763"></path><path d="M426.688 426.688h42.688v42.688h-42.688z" fill="#FFFFFF" p-id="15764"></path><path d="M469.312 426.688H512v42.688h-42.688zM384 469.312h42.688V512H384z" fill="#FFFFFF" p-id="15765"></path><path d="M426.688 469.312h42.688V512h-42.688zM512 384h42.688v42.688H512zM512 426.688h42.688v42.688H512z" fill="#FFFFFF" p-id="15766"></path><path d="M512 469.312h42.688V512H512zM426.688 512h42.688v42.688h-42.688zM554.688 384h42.688v42.688h-42.688zM554.688 426.688h42.688v42.688h-42.688z" fill="#FFFFFF" p-id="15767"></path><path d="M597.312 384H640v42.688h-42.688zM597.312 426.688H640v42.688h-42.688z" fill="#FFFFFF" p-id="15768"></path><path d="M597.312 469.312H640V512h-42.688zM554.688 512h42.688v42.688h-42.688z" fill="#FFFFFF" p-id="15769"></path><path d="M597.312 512H640v42.688h-42.688zM512 554.688h42.688v42.688H512zM341.312 128H384v42.688h-42.688zM384 128h42.688v42.688H384zM426.688 128h42.688v42.688h-42.688z" fill="#FFFFFF" p-id="15770"></path><path d="M469.312 128H512v42.688h-42.688zM213.312 341.312H256V384h-42.688zM256 341.312h42.688V384H256zM298.688 341.312h42.688V384h-42.688z" fill="#FFFFFF" p-id="15771"></path><path d="M341.312 341.312H384V384h-42.688zM384 341.312h42.688V384H384zM426.688 341.312h42.688V384h-42.688z" fill="#FFFFFF" p-id="15772"></path><path d="M469.312 341.312H512V384h-42.688zM512 128h42.688v42.688H512zM512 341.312h42.688V384H512z" fill="#FFFFFF" p-id="15773"></path><path d="M554.688 128h42.688v42.688h-42.688zM554.688 341.312h42.688V384h-42.688z" fill="#E6E6E6" p-id="15774"></path><path d="M597.312 128H640v42.688h-42.688zM597.312 341.312H640V384h-42.688zM640 128h42.688v42.688H640zM640 298.688h42.688v42.688H640z" fill="#FFFFFF" p-id="15775"></path><path d="M640 341.312h42.688V384H640zM640 384h42.688v42.688H640zM640 426.688h42.688v42.688H640z" fill="#FFFFFF" p-id="15776"></path><path d="M640 469.312h42.688V512H640zM640 512h42.688v42.688H640zM682.688 256h42.688v42.688h-42.688zM682.688 341.312h42.688V384h-42.688z" fill="#FFFFFF" p-id="15777"></path><path d="M725.312 341.312H768V384h-42.688zM768 341.312h42.688V384H768zM341.312 469.312H384V512h-42.688zM469.312 469.312H512V512h-42.688zM469.312 512H512v42.688h-42.688zM512 512h42.688v42.688H512zM554.688 469.312h42.688V512h-42.688zM469.312 554.688H512v42.688h-42.688zM554.688 554.688h42.688v42.688h-42.688z" fill="#FFFFFF" p-id="15778"></path><path d="M554.688 597.312h42.688V640h-42.688z" p-id="15779"></path><path d="M213.312 725.312H256V768h-42.688zM256 725.312h42.688V768H256z" fill="#388F39" p-id="15780"></path><path d="M298.688 725.312h42.688V768h-42.688z" fill="#FDCD00" p-id="15781"></path><path d="M170.688 768h42.688v42.688h-42.688z" fill="#388F39" p-id="15782"></path><path d="M341.312 768H384v42.688h-42.688z" fill="#FDCD00" p-id="15783"></path><path d="M85.312 810.688H128v42.688h-42.688zM128 810.688h42.688v42.688H128zM384 810.688h42.688v42.688H384z" fill="#388F39" p-id="15784"></path><path d="M298.688 170.688h42.688v42.688h-42.688zM256 213.312h42.688V256H256zM213.312 256H256v42.688h-42.688zM213.312 298.688H256v42.688h-42.688zM682.688 170.688h42.688v42.624h-42.688zM384 42.688h42.688v42.688H384zM341.312 85.312H384V128h-42.688zM597.312 42.688H640v42.688h-42.688zM640 85.312h42.688V128H640zM768 256h42.688v42.688H768zM768 298.688h42.688v42.688H768zM853.312 384H896v42.688h-42.688zM853.312 426.688H896v42.688h-42.688zM896 469.312h42.688V512H896zM896 512h42.688v42.688H896zM938.688 554.688h42.688v42.688h-42.688z" p-id="15785"></path><path d="M938.688 597.312h42.688V640h-42.688zM938.688 640h42.688v42.688h-42.688zM128 384h42.688v42.688H128zM128 426.688h42.688v42.688H128zM42.688 554.688h42.688v42.688H42.688z" p-id="15786"></path><path d="M42.688 597.312h42.688V640H42.688zM42.688 640h42.688v42.688H42.688zM42.688 938.688h42.688v42.688H42.688z" p-id="15787"></path><path d="M85.312 938.688H128v42.688h-42.688zM128 938.688h42.688v42.688H128zM170.688 938.688h42.688v42.688h-42.688zM810.688 938.688h42.688v42.688h-42.688z" p-id="15788"></path><path d="M853.312 938.688H896v42.688h-42.688zM896 938.688h42.688v42.688H896zM938.688 938.688h42.688v42.688h-42.688zM426.688 0h42.688v42.688h-42.688z" p-id="15789"></path><path d="M469.312 0H512v42.688h-42.688zM298.688 128h42.688v42.688h-42.688zM170.688 341.312h42.688V384h-42.688zM512 0h42.688v42.688H512zM554.688 0h42.688v42.688h-42.688zM682.688 128h42.688v42.688h-42.688zM725.312 213.312H768V256h-42.688zM0 682.688h42.688v42.688H0z" p-id="15790"></path><path d="M0 725.312h42.688V768H0zM0 768h42.688v42.688H0zM0 810.688h42.688v42.688H0zM810.688 341.312h42.688V384h-42.688zM981.312 682.688H1024v42.688h-42.688z" p-id="15791"></path><path d="M981.312 725.312H1024V768h-42.688zM981.312 768H1024v42.688h-42.688zM981.312 810.688H1024v42.688h-42.688zM0 853.312h42.688V896H0zM0 896h42.688v42.688H0zM213.312 981.312H256V1024h-42.688zM256 981.312h42.688V1024H256zM298.688 981.312h42.688V1024h-42.688z" p-id="15792"></path><path d="M341.312 981.312H384V1024h-42.688zM384 981.312h42.688V1024H384zM426.688 981.312h42.688V1024h-42.688z" p-id="15793"></path><path d="M469.312 981.312H512V1024h-42.688zM512 981.312h42.688V1024H512zM554.688 981.312h42.688V1024h-42.688z" p-id="15794"></path><path d="M597.312 981.312H640V1024h-42.688zM640 981.312h42.688V1024H640zM682.688 981.312h42.688V1024h-42.688z" p-id="15795"></path><path d="M725.312 981.312H768V1024h-42.688zM768 981.312h42.688V1024H768zM981.312 853.312H1024V896h-42.688zM981.312 896H1024v42.688h-42.688zM85.312 469.312H128V512h-42.688zM85.312 512H128v42.688h-42.688z" p-id="15796"></path></svg>